<svg xmlns="http://www.w3.org/2000/svg" viewBox="0 0 1000 820" role="img" aria-label="Mapa de España por comunidades autónomas">
  <rect class="canary-box" x="18" y="636" width="362" height="166"/>
  <path class="ccaa" data-ccaa="Andalucía" d="M316.5,490.2 L318.7,493.0 L327.6,493.8 L328.8,500.3 L339.5,504.0 L347.4,511.7 L353.1,513.7 L357.3,519.3 L368.9,524.5 L371.0,519.3 L394.9,522.2 L399.2,521.6 L404.0,517.2 L417.1,519.5 L418.2,514.8 L421.1,515.4 L422.0,518.6 L427.4,519.4 L432.6,515.9 L432.8,512.7 L436.2,512.1 L449.3,516.0 L454.5,512.4 L458.9,518.7 L461.6,513.0 L467.3,514.7 L475.3,507.5 L481.4,510.7 L487.5,509.5 L489.4,511.3 L488.9,518.0 L495.2,519.6 L495.1,528.3 L498.5,531.5 L497.8,538.6 L490.4,547.6 L505.2,552.8 L517.0,564.9 L520.4,563.9 L522.0,565.9 L530.8,566.7 L528.1,581.6 L530.6,588.8 L539.9,603.3 L542.4,605.2 L542.2,603.6 L547.4,604.4 L554.9,610.5 L543.2,623.1 L535.8,648.8 L529.6,652.6 L529.0,657.3 L524.8,660.0 L524.8,662.7 L520.3,666.7 L515.5,667.7 L508.6,659.0 L503.7,657.2 L499.2,659.9 L495.8,657.6 L489.7,659.4 L485.6,667.2 L480.0,671.0 L469.5,669.9 L464.1,665.0 L440.9,664.9 L429.6,670.1 L416.9,665.6 L408.1,667.9 L400.5,664.8 L392.0,667.3 L384.3,665.3 L376.3,668.3 L360.0,667.9 L353.2,678.9 L346.8,681.5 L344.3,686.4 L337.2,688.5 L325.1,686.5 L306.6,694.4 L296.8,710.5 L295.3,717.1 L289.1,715.2 L288.9,724.2 L276.3,730.4 L273.3,725.8 L263.2,723.6 L254.9,714.4 L246.6,714.7 L227.3,684.5 L229.4,683.2 L232.9,690.2 L236.9,685.1 L232.0,686.4 L232.7,679.6 L231.5,680.7 L228.0,676.7 L221.4,675.3 L218.0,666.2 L225.0,661.3 L221.2,660.2 L212.4,645.3 L184.8,627.8 L190.7,633.8 L175.9,625.1 L150.5,627.4 L146.5,600.5 L142.4,594.6 L143.7,590.1 L147.9,584.8 L149.5,576.4 L159.1,566.7 L160.5,556.8 L169.7,555.1 L172.1,551.2 L174.8,553.5 L178.8,553.0 L181.2,540.3 L183.8,536.5 L193.3,539.2 L191.9,544.4 L195.9,546.8 L205.4,546.4 L208.2,553.2 L215.6,554.4 L217.3,550.1 L220.0,549.8 L223.3,550.7 L227.7,557.0 L236.4,560.3 L240.9,556.7 L252.2,555.5 L255.4,549.5 L254.1,545.7 L259.4,539.8 L270.4,538.5 L271.1,541.1 L269.6,540.0 L270.4,541.7 L267.1,543.8 L269.3,547.8 L274.7,542.7 L278.1,543.3 L281.2,540.8 L282.4,533.8 L278.7,525.7 L279.2,516.5 L289.7,509.3 L293.0,503.0 L297.4,503.5 L304.4,495.5 L306.1,496.2 L306.1,490.8 L312.0,491.9 L316.5,490.2Z"/>
  <path class="ccaa" data-ccaa="Aragón" d="M616.7,101.8 L626.9,110.4 L627.0,113.2 L629.2,112.8 L629.3,115.3 L633.7,110.8 L638.1,113.9 L641.4,113.6 L647.1,108.7 L655.8,114.7 L657.8,113.6 L661.6,121.0 L667.9,124.4 L681.3,119.5 L687.2,121.5 L689.7,125.5 L694.3,120.7 L698.6,123.9 L710.8,122.5 L715.3,123.9 L718.3,130.2 L722.8,131.4 L721.5,138.7 L719.5,139.7 L720.8,141.5 L717.4,143.2 L721.3,152.9 L719.7,154.8 L723.0,156.2 L720.9,157.5 L722.6,158.8 L715.4,188.2 L708.4,195.1 L711.6,196.9 L711.5,201.4 L702.9,208.0 L701.8,211.4 L697.0,212.1 L691.9,219.5 L693.5,226.9 L699.0,226.6 L700.3,232.3 L696.8,237.1 L693.0,237.7 L693.9,240.7 L691.4,246.1 L695.2,250.1 L693.4,252.2 L695.7,260.8 L691.6,261.9 L689.5,268.3 L683.1,271.1 L684.3,278.7 L688.6,280.9 L687.1,281.4 L689.6,285.5 L685.8,293.5 L688.5,299.4 L685.1,304.3 L680.2,305.9 L680.5,308.4 L676.9,308.0 L672.0,311.4 L670.1,307.9 L664.5,308.0 L657.5,302.4 L653.4,305.5 L652.5,311.4 L647.5,314.3 L646.0,312.4 L642.6,313.5 L643.1,318.5 L648.5,318.8 L647.9,327.6 L650.0,331.4 L644.7,334.2 L649.3,341.3 L641.8,346.7 L642.2,350.6 L639.1,352.5 L634.4,353.9 L630.9,351.8 L628.5,362.3 L625.0,365.5 L626.1,368.5 L616.3,370.6 L614.6,375.0 L610.4,377.0 L610.2,381.7 L613.2,385.7 L608.3,388.8 L605.2,386.5 L604.6,378.1 L589.1,377.4 L587.5,373.9 L594.0,369.3 L588.7,364.4 L581.9,364.3 L578.2,355.5 L576.6,361.5 L568.7,362.1 L568.3,356.8 L561.2,357.4 L550.7,346.5 L548.5,349.3 L550.2,345.4 L542.9,337.1 L550.5,330.2 L551.6,320.6 L557.1,323.3 L560.8,320.2 L561.1,300.3 L555.5,293.9 L555.8,288.0 L542.8,274.4 L533.8,269.9 L531.9,266.8 L525.4,269.1 L518.8,265.7 L516.9,256.0 L521.9,241.3 L526.5,243.1 L527.0,247.0 L533.4,244.8 L530.3,237.5 L531.3,231.9 L529.5,226.8 L534.4,227.0 L543.9,217.6 L544.7,215.2 L539.3,209.1 L541.8,203.1 L539.0,197.8 L539.7,188.6 L545.3,189.7 L549.0,193.4 L553.2,192.6 L559.9,197.4 L570.3,196.9 L577.7,185.3 L577.3,182.5 L574.4,182.4 L571.1,177.4 L569.8,169.3 L571.1,161.8 L576.0,155.7 L573.8,153.6 L575.1,149.2 L579.9,143.7 L578.9,139.8 L580.5,136.6 L584.8,137.3 L588.4,128.0 L595.4,128.5 L597.1,123.0 L602.6,121.9 L606.0,117.2 L608.5,117.0 L611.7,103.8 L616.7,101.8Z"/>
  <path class="ccaa" data-ccaa="Asturias" d="M260.1,30.8 L266.1,38.2 L271.7,39.4 L269.9,39.9 L271.4,42.3 L275.8,40.6 L290.1,41.0 L291.8,43.4 L298.3,42.9 L303.9,48.7 L324.2,49.9 L340.0,55.5 L352.7,56.3 L352.5,67.4 L350.7,68.6 L346.5,65.5 L344.8,68.7 L337.8,69.7 L336.8,76.7 L330.1,77.0 L328.0,72.5 L325.2,71.6 L319.2,77.8 L313.7,76.9 L311.9,84.6 L308.6,83.3 L299.2,86.9 L293.1,85.3 L291.7,89.6 L285.5,89.1 L284.4,92.3 L270.5,88.9 L268.0,90.3 L265.5,97.2 L262.7,97.9 L255.0,95.0 L250.7,88.1 L247.6,89.1 L243.3,87.1 L242.3,91.3 L239.4,92.3 L233.9,89.8 L233.1,93.5 L223.8,88.6 L219.3,95.5 L215.5,95.2 L218.7,100.1 L211.1,102.7 L198.4,102.2 L194.9,105.6 L190.5,102.3 L188.0,95.4 L185.3,95.3 L182.0,90.8 L181.6,95.2 L179.2,92.5 L183.3,86.1 L184.9,87.3 L191.5,80.6 L188.2,76.1 L187.0,79.3 L182.0,81.4 L181.0,74.8 L174.7,70.9 L174.8,65.0 L171.9,65.2 L170.0,58.6 L166.2,56.7 L166.9,53.0 L171.9,53.3 L175.6,48.5 L177.3,40.5 L205.1,39.2 L211.6,41.9 L215.8,41.4 L216.1,39.4 L224.1,41.3 L231.9,37.1 L241.1,40.9 L247.8,37.8 L252.0,38.6 L260.1,30.8Z"/>
  <path class="ccaa" data-ccaa="Baleares" d="M894.0,378.7 L884.7,383.8 L886.5,387.9 L893.4,385.0 L891.6,389.4 L887.5,390.2 L888.5,394.7 L896.8,399.5 L903.4,394.1 L911.4,397.8 L910.8,400.2 L912.6,400.8 L909.6,408.2 L906.9,408.7 L907.4,413.2 L899.5,420.9 L895.3,432.9 L883.9,441.5 L876.1,432.9 L864.2,432.8 L859.6,422.6 L861.5,419.4 L855.9,414.7 L853.4,414.2 L853.3,416.3 L846.9,418.1 L845.6,424.3 L842.4,423.4 L841.0,417.3 L834.5,417.4 L836.4,416.2 L833.3,414.5 L834.0,410.8 L850.1,400.7 L863.6,388.0 L868.2,387.5 L875.6,382.2 L877.9,383.2 L881.0,380.8 L883.3,382.2 L894.0,378.7Z M955.7,366.8 L956.3,370.8 L958.4,369.1 L957.9,372.5 L960.0,368.6 L963.5,375.5 L963.6,373.7 L968.0,375.2 L966.9,378.2 L972.0,386.1 L967.0,384.3 L970.6,387.1 L969.2,391.7 L963.7,390.8 L946.2,380.5 L936.5,381.7 L937.6,374.6 L934.4,373.4 L936.6,370.2 L952.8,370.1 L955.7,366.8Z M776.3,454.9 L781.4,457.4 L780.2,459.9 L782.6,463.1 L779.7,466.5 L776.0,467.2 L776.1,470.5 L768.5,474.3 L767.5,480.7 L765.0,480.8 L763.1,477.2 L754.7,477.2 L754.1,469.4 L760.5,468.1 L759.6,462.7 L764.2,458.9 L776.3,454.9Z M769.6,487.0 L773.8,493.6 L776.2,495.0 L778.9,493.3 L780.0,495.9 L775.7,496.8 L770.4,493.9 L766.0,497.8 L765.7,490.8 L768.4,490.5 L769.6,487.0Z"/>
  <path class="ccaa" data-ccaa="Cantabria" d="M417.7,45.0 L428.8,50.0 L428.9,52.0 L424.6,53.5 L426.6,52.9 L426.5,55.5 L427.5,52.5 L429.2,54.7 L436.3,54.1 L436.6,55.7 L443.5,56.5 L448.3,60.4 L448.4,64.9 L444.3,67.1 L443.2,64.7 L439.4,66.5 L435.7,65.4 L435.2,67.7 L427.6,71.7 L429.8,81.6 L416.8,80.0 L413.4,77.0 L405.5,86.6 L399.7,86.3 L399.5,90.5 L396.7,90.3 L392.3,94.3 L389.6,100.9 L393.7,103.9 L398.3,98.7 L400.9,101.1 L398.3,104.0 L395.5,102.5 L396.5,105.1 L394.3,104.9 L397.4,108.6 L398.5,104.9 L400.6,106.1 L401.9,112.5 L398.7,114.7 L396.4,113.0 L395.2,116.5 L389.0,116.4 L388.8,110.5 L385.2,117.0 L381.6,114.1 L378.5,114.5 L376.0,111.8 L380.2,108.1 L378.5,106.7 L374.0,109.0 L372.2,98.5 L364.6,97.0 L357.7,88.7 L349.9,92.5 L346.6,90.9 L338.4,92.7 L329.4,82.3 L329.6,77.3 L337.6,76.1 L337.8,69.7 L344.8,68.7 L346.5,65.5 L350.7,68.6 L352.4,67.7 L351.3,60.2 L353.2,56.5 L376.7,55.8 L383.3,52.2 L390.5,52.0 L392.8,49.1 L404.0,47.1 L405.6,49.5 L401.2,50.9 L401.9,55.8 L406.8,51.0 L404.6,50.3 L417.7,45.0Z"/>
  <path class="ccaa" data-ccaa="Castilla y León" d="M326.4,71.5 L330.2,76.2 L329.4,82.3 L336.9,88.9 L337.2,92.2 L344.3,92.7 L346.6,90.9 L349.9,92.5 L357.7,88.7 L364.6,97.0 L372.2,98.5 L373.3,108.0 L375.0,109.2 L378.9,106.9 L380.0,109.0 L376.2,112.5 L382.1,114.3 L384.0,117.2 L388.5,110.5 L390.5,117.5 L395.2,116.5 L396.4,113.0 L398.6,114.8 L401.4,113.5 L401.1,106.7 L398.5,104.9 L397.4,108.6 L394.3,104.9 L396.5,105.1 L395.5,102.5 L398.2,104.0 L400.7,102.2 L400.2,100.1 L396.9,99.2 L393.7,103.9 L389.9,100.0 L392.8,93.8 L396.7,90.3 L399.4,90.6 L399.7,86.3 L405.5,86.6 L413.4,77.0 L416.8,80.0 L427.9,81.7 L441.3,75.3 L443.3,78.0 L448.6,77.7 L446.3,82.8 L449.6,85.0 L447.9,87.3 L449.1,91.5 L446.6,92.2 L454.8,94.0 L460.3,100.2 L457.7,103.1 L452.6,104.0 L443.3,99.2 L439.2,106.2 L444.6,110.8 L445.7,106.8 L447.6,108.0 L451.0,104.9 L447.9,113.0 L450.4,114.5 L448.7,117.6 L455.5,116.7 L460.4,122.6 L465.8,123.6 L466.3,127.3 L468.9,128.9 L464.9,130.7 L462.8,128.8 L453.1,128.6 L454.8,133.5 L449.6,138.0 L453.9,139.3 L452.4,143.1 L455.8,147.2 L455.0,154.3 L451.9,149.9 L451.6,152.8 L454.6,155.6 L451.3,156.1 L452.8,166.1 L450.0,170.6 L456.6,181.2 L463.5,180.9 L467.1,188.4 L473.2,184.9 L474.8,177.7 L477.6,177.5 L479.6,179.5 L476.7,188.4 L488.4,189.7 L493.0,182.8 L493.0,178.5 L506.7,175.6 L509.3,176.9 L510.1,181.0 L520.1,180.1 L517.7,183.0 L521.5,189.0 L521.3,193.3 L527.0,193.7 L531.1,196.9 L539.1,192.5 L539.0,197.8 L541.8,203.1 L539.3,209.1 L544.7,215.2 L543.9,217.6 L534.4,227.0 L529.5,226.8 L531.3,231.9 L530.3,237.5 L533.4,244.8 L527.0,247.0 L526.5,243.1 L521.9,241.3 L520.9,247.2 L517.6,249.7 L518.8,265.7 L525.4,269.1 L525.6,275.5 L519.8,271.8 L516.7,275.0 L512.8,273.8 L506.4,277.5 L504.1,274.8 L499.7,277.4 L496.2,275.5 L491.5,267.7 L487.3,268.8 L488.6,266.2 L485.5,265.3 L487.8,261.9 L485.0,262.8 L478.8,257.2 L471.5,258.9 L468.3,257.3 L466.8,252.5 L454.7,257.4 L445.0,254.5 L441.2,258.8 L429.9,257.4 L430.8,262.9 L427.9,262.8 L422.9,267.7 L416.0,268.9 L404.3,282.8 L395.5,286.9 L390.4,302.7 L383.6,302.3 L377.0,312.3 L377.7,317.6 L371.8,319.6 L368.6,317.2 L368.8,323.1 L366.0,325.9 L366.5,337.2 L359.5,337.6 L357.1,345.6 L353.8,346.0 L350.8,343.5 L351.9,348.0 L349.1,351.3 L349.4,354.9 L343.2,356.7 L340.9,355.5 L340.1,349.0 L335.7,351.0 L332.7,349.7 L332.5,353.3 L324.3,359.3 L324.2,362.4 L318.6,364.8 L317.7,360.3 L307.0,367.1 L303.9,365.0 L296.7,365.0 L293.2,359.9 L294.9,350.6 L289.0,351.7 L286.0,355.8 L281.1,356.9 L276.0,354.9 L270.5,348.1 L263.5,348.6 L263.0,342.4 L257.0,345.0 L254.8,349.4 L251.2,348.3 L247.9,343.7 L241.6,342.2 L244.4,338.5 L239.9,336.3 L240.9,334.4 L238.7,334.9 L232.8,330.2 L224.9,334.3 L223.0,338.0 L211.4,343.0 L207.9,350.1 L200.7,352.6 L198.7,350.2 L196.1,353.0 L189.7,351.6 L188.6,347.6 L193.4,344.7 L194.3,341.4 L189.5,333.4 L193.3,327.9 L192.9,324.3 L189.8,322.9 L193.4,314.1 L190.8,305.7 L191.1,297.3 L193.0,296.8 L183.9,280.0 L192.4,279.4 L196.2,273.2 L195.3,270.2 L203.6,259.8 L208.8,260.6 L212.4,257.1 L214.2,258.1 L222.4,249.6 L221.7,246.9 L226.7,246.9 L225.7,244.5 L235.7,229.2 L227.8,221.0 L217.9,218.9 L214.1,221.5 L210.6,218.8 L209.1,213.4 L212.9,201.5 L209.0,200.3 L210.8,195.3 L208.8,193.0 L200.0,195.6 L196.4,194.6 L194.0,190.4 L192.2,190.0 L189.9,194.7 L183.1,194.6 L180.1,191.8 L181.7,186.7 L176.6,182.3 L187.5,168.6 L193.9,168.9 L192.8,166.8 L197.1,161.1 L197.6,155.4 L190.0,151.2 L192.0,148.9 L191.1,142.7 L183.7,140.1 L180.5,142.7 L173.6,141.2 L176.6,134.0 L175.7,129.4 L178.7,128.4 L175.8,123.5 L188.3,114.7 L190.2,111.2 L188.0,106.4 L191.9,106.7 L189.6,102.5 L195.0,105.6 L200.7,101.8 L214.7,102.0 L218.7,100.1 L215.5,95.2 L219.3,95.5 L223.8,88.6 L233.1,93.5 L233.9,89.8 L239.4,92.3 L242.3,91.3 L243.3,87.1 L247.6,89.1 L250.7,88.1 L255.0,95.0 L262.7,97.9 L265.5,97.2 L268.0,90.3 L270.5,88.9 L284.4,92.3 L285.5,89.1 L291.7,89.6 L293.1,85.3 L299.2,86.9 L308.6,83.3 L311.9,84.6 L313.7,76.9 L319.2,77.8 L326.4,71.5Z M471.1,114.6 L477.8,114.0 L486.9,116.3 L487.8,118.2 L489.9,117.0 L486.4,123.4 L488.6,126.0 L492.5,124.5 L492.8,128.1 L484.6,128.0 L482.9,125.6 L475.3,126.2 L468.2,119.2 L471.1,114.6Z"/>
  <path class="ccaa" data-ccaa="Castilla-La Mancha" d="M465.9,252.5 L471.5,258.9 L478.8,257.2 L485.0,262.8 L487.8,261.9 L485.5,265.3 L488.6,266.2 L487.3,268.8 L491.5,267.7 L496.2,275.5 L499.7,277.4 L504.1,274.8 L506.4,277.5 L512.8,273.8 L516.7,275.0 L519.8,271.8 L525.1,276.3 L525.7,268.6 L531.9,266.8 L533.8,269.9 L542.8,274.4 L556.2,288.6 L555.5,293.9 L561.1,300.3 L560.8,320.2 L557.1,323.3 L551.6,320.6 L550.5,330.2 L542.6,338.4 L550.2,345.4 L548.0,347.1 L548.7,349.5 L550.7,346.5 L561.2,357.4 L568.3,356.8 L567.1,362.9 L570.5,365.6 L572.6,373.3 L581.6,375.3 L587.5,373.9 L589.1,377.4 L584.5,380.0 L585.0,387.8 L579.7,398.7 L580.7,402.3 L577.5,404.9 L573.2,403.2 L569.8,406.3 L566.7,413.4 L562.6,415.8 L564.1,420.3 L562.0,424.5 L564.9,429.4 L567.3,429.6 L567.2,433.0 L570.0,431.2 L575.5,435.4 L587.5,437.6 L586.4,446.5 L580.4,461.0 L588.8,471.9 L601.9,470.6 L604.3,475.3 L604.0,485.0 L601.7,485.8 L604.9,492.9 L601.7,496.4 L596.6,496.5 L590.7,489.2 L586.2,487.6 L574.9,494.6 L573.4,492.2 L570.9,493.4 L564.1,507.6 L565.5,521.5 L557.8,527.4 L552.1,527.3 L550.9,522.5 L547.0,521.1 L535.5,528.5 L530.2,530.0 L525.6,527.8 L521.1,533.9 L514.1,537.0 L504.0,553.1 L490.4,547.6 L497.8,538.6 L498.5,531.5 L495.1,528.3 L495.2,519.6 L488.9,518.0 L489.4,511.3 L487.2,509.4 L481.4,510.7 L475.3,507.5 L467.3,514.7 L461.6,513.0 L458.9,518.7 L454.5,512.4 L449.3,516.0 L436.2,512.1 L432.8,512.7 L432.6,515.9 L427.4,519.4 L422.0,518.6 L421.1,515.4 L418.2,514.8 L417.1,519.5 L404.0,517.2 L399.2,521.6 L394.9,522.2 L371.0,519.3 L368.9,524.5 L357.3,519.3 L353.1,513.7 L347.4,511.7 L339.5,504.0 L328.8,500.3 L327.6,493.8 L318.7,493.0 L315.7,489.9 L319.7,489.0 L322.9,478.7 L324.9,475.7 L329.7,476.2 L330.8,471.4 L324.7,469.5 L321.6,460.3 L327.4,462.7 L330.7,461.4 L327.8,456.5 L332.3,447.6 L343.6,450.5 L339.4,446.7 L335.7,436.6 L339.5,436.0 L342.1,427.2 L340.7,424.8 L328.0,432.3 L319.1,427.0 L304.8,412.0 L309.3,400.8 L306.8,397.5 L307.3,393.1 L304.5,393.3 L301.2,397.4 L297.4,396.7 L299.1,387.3 L296.3,384.7 L290.6,386.0 L293.4,376.4 L293.2,365.7 L295.4,364.3 L307.0,367.1 L317.7,360.3 L318.1,364.7 L322.2,363.8 L324.3,359.3 L332.5,353.3 L332.8,349.6 L335.7,351.0 L340.1,349.0 L340.9,355.5 L343.2,356.7 L348.5,355.0 L352.0,356.5 L358.4,353.2 L362.4,345.7 L364.6,353.2 L367.6,354.6 L371.6,349.8 L374.8,350.2 L375.6,347.6 L378.8,352.4 L383.9,350.5 L389.6,355.7 L392.3,355.4 L392.4,357.4 L398.0,357.5 L400.6,360.1 L402.7,358.7 L405.1,362.1 L412.3,361.7 L416.5,364.9 L414.5,371.1 L406.8,376.6 L408.0,378.1 L397.7,381.4 L402.0,385.3 L406.9,380.3 L414.6,378.0 L417.7,373.7 L422.6,372.9 L423.5,370.4 L430.9,371.7 L432.6,368.0 L435.6,367.4 L439.8,370.5 L444.9,369.3 L446.6,366.4 L447.7,368.9 L452.7,368.4 L455.3,365.8 L452.2,361.8 L454.3,360.4 L452.2,350.0 L450.0,349.3 L446.9,353.4 L445.2,351.3 L449.9,337.7 L448.1,334.6 L445.1,334.3 L445.0,327.7 L442.9,325.4 L438.2,325.5 L439.1,322.6 L435.3,317.4 L436.9,314.7 L434.8,316.3 L431.5,311.2 L430.7,313.4 L426.2,311.5 L428.6,308.0 L427.9,304.9 L423.2,302.4 L428.2,294.3 L426.8,291.4 L431.4,282.8 L428.3,278.8 L429.2,275.1 L424.8,274.0 L421.2,267.5 L430.8,262.9 L429.9,257.4 L441.2,258.8 L445.0,254.5 L454.7,257.4 L462.5,255.6 L465.9,252.5Z"/>
  <path class="ccaa" data-ccaa="Cataluña" d="M719.2,107.9 L733.9,114.5 L736.3,112.9 L737.9,114.7 L744.6,114.6 L750.7,122.1 L755.1,120.3 L764.1,121.1 L770.1,132.2 L768.0,138.7 L770.6,138.2 L771.8,141.1 L768.4,143.5 L770.9,148.1 L777.7,148.4 L778.3,145.9 L785.0,145.0 L786.0,141.6 L789.9,141.6 L801.5,147.0 L804.6,146.3 L806.6,153.3 L810.1,156.5 L815.0,155.1 L819.4,149.6 L827.0,147.8 L839.4,152.1 L842.7,157.1 L846.4,157.9 L849.0,155.5 L856.1,157.1 L854.7,152.8 L856.2,151.1 L861.8,149.0 L863.5,150.4 L867.8,145.9 L873.4,146.2 L875.4,143.7 L881.9,144.5 L885.0,149.1 L891.3,148.1 L890.5,155.2 L892.8,157.7 L895.1,156.1 L901.6,159.1 L899.2,160.6 L897.6,166.9 L895.1,165.6 L894.3,167.4 L890.5,164.4 L886.9,169.9 L887.7,177.2 L893.9,182.8 L892.8,188.1 L895.4,194.0 L891.5,201.9 L886.2,203.9 L882.1,210.1 L874.5,216.1 L866.4,218.5 L863.3,222.4 L827.7,240.0 L817.2,255.8 L759.9,270.9 L754.5,275.0 L756.5,272.7 L753.6,273.5 L751.0,277.7 L747.7,275.8 L738.1,279.0 L718.0,300.9 L720.6,304.4 L723.7,304.2 L720.2,302.3 L722.7,302.0 L727.2,307.5 L730.1,307.3 L729.7,311.2 L722.1,316.0 L715.9,323.5 L712.3,324.1 L710.7,321.8 L718.7,320.6 L721.2,316.4 L711.1,317.7 L705.1,326.9 L700.5,325.2 L697.2,319.6 L688.6,317.0 L689.5,311.6 L680.2,305.9 L685.1,304.3 L688.5,299.4 L685.8,293.5 L689.6,285.5 L687.1,281.4 L688.6,280.9 L684.3,278.7 L683.1,271.1 L689.5,268.3 L691.6,261.9 L695.7,260.8 L693.4,252.2 L695.2,250.1 L691.4,246.1 L693.9,240.7 L693.0,237.7 L696.8,237.1 L700.3,232.3 L699.0,226.6 L693.5,226.9 L692.0,219.3 L697.0,212.1 L701.8,211.4 L702.9,208.0 L711.5,201.4 L711.6,196.9 L708.4,195.1 L715.1,189.2 L722.6,158.8 L720.9,157.5 L723.0,156.2 L719.6,154.6 L721.3,152.9 L717.4,143.2 L720.8,141.5 L719.5,139.7 L721.5,138.7 L722.8,131.4 L718.0,129.8 L715.2,124.1 L716.7,120.8 L714.0,117.9 L715.2,109.7 L719.2,107.9Z"/>
  <circle class="ccaa ccaa-dot" data-ccaa="Ceuta" cx="316.3" cy="758.7" r="7"/>
  <path class="ccaa" data-ccaa="Comunidad Valenciana" d="M657.5,302.4 L664.5,308.0 L670.1,307.9 L672.0,311.4 L676.9,308.0 L684.9,307.5 L685.6,310.4 L689.5,311.6 L688.6,317.0 L697.2,319.6 L700.1,321.8 L699.7,324.7 L705.1,326.9 L697.6,342.1 L687.5,355.8 L682.6,359.0 L679.4,367.3 L672.4,371.8 L668.7,382.6 L660.6,391.8 L654.5,407.4 L651.2,409.4 L646.9,418.2 L647.9,426.4 L645.8,424.0 L647.1,433.6 L653.9,448.8 L652.5,453.3 L657.8,466.3 L667.7,476.9 L677.8,479.2 L682.8,483.2 L682.4,486.0 L685.4,489.2 L675.9,495.0 L674.9,498.7 L667.9,499.1 L662.2,508.4 L658.6,507.3 L647.2,512.5 L642.0,516.6 L640.8,523.7 L637.9,522.7 L633.6,525.4 L633.4,537.0 L626.0,539.7 L623.1,556.5 L620.3,557.8 L614.3,568.8 L606.0,561.9 L597.4,548.3 L596.5,542.8 L601.3,530.5 L599.8,526.5 L593.1,524.2 L592.9,522.3 L592.4,516.0 L598.1,510.8 L597.1,496.5 L601.7,496.4 L604.9,492.9 L601.7,485.8 L604.0,485.0 L604.3,475.3 L601.9,470.6 L588.8,471.9 L580.6,461.5 L587.7,438.0 L575.5,435.4 L570.0,431.2 L567.2,433.0 L567.3,429.6 L562.5,426.5 L564.1,420.3 L562.6,415.9 L566.7,413.4 L573.2,403.2 L577.1,404.9 L580.3,403.0 L579.7,398.7 L585.0,387.8 L584.8,379.5 L599.8,376.5 L604.7,378.3 L606.8,388.4 L613.2,385.7 L610.2,381.7 L610.4,377.0 L614.6,375.0 L616.3,370.6 L626.1,368.5 L625.0,365.5 L628.5,362.3 L630.9,351.8 L634.4,353.9 L639.1,352.5 L642.2,350.6 L641.8,346.7 L649.3,341.4 L644.7,334.2 L650.0,331.4 L647.9,327.6 L648.5,318.8 L643.1,318.5 L642.4,313.9 L646.0,312.4 L647.5,314.3 L652.5,311.4 L653.4,305.5 L657.5,302.4Z M578.3,355.6 L581.9,364.3 L588.7,364.4 L594.0,370.2 L581.8,375.3 L572.6,373.3 L570.5,365.6 L567.0,362.5 L574.2,363.0 L576.9,361.2 L578.3,355.6Z"/>
  <path class="ccaa" data-ccaa="Extremadura" d="M232.8,330.2 L244.4,338.5 L241.6,342.2 L247.9,343.7 L248.6,346.8 L253.3,349.1 L263.0,342.4 L263.5,348.6 L270.5,348.1 L276.0,354.9 L280.6,356.8 L295.0,350.7 L293.2,359.8 L295.5,364.3 L293.2,365.7 L293.4,376.4 L290.6,386.0 L296.3,384.7 L299.1,387.3 L297.4,396.7 L301.2,397.4 L304.5,393.3 L307.3,393.1 L306.8,397.5 L309.3,400.8 L304.5,411.6 L322.5,430.0 L328.0,432.3 L340.9,424.9 L342.1,427.2 L339.5,436.0 L335.7,436.6 L339.4,446.7 L343.7,450.4 L332.3,447.6 L327.8,456.5 L330.7,461.4 L327.4,462.7 L321.6,460.3 L324.7,469.5 L330.7,471.1 L329.7,476.2 L324.9,475.7 L319.7,489.0 L312.0,491.9 L306.1,490.8 L306.1,496.2 L304.4,495.5 L297.4,503.5 L293.0,503.0 L289.7,509.3 L279.2,516.5 L278.7,525.7 L282.4,533.8 L281.2,540.8 L278.1,543.3 L274.7,542.7 L269.3,547.8 L267.1,543.8 L270.4,541.7 L269.6,540.0 L271.1,541.1 L270.4,538.5 L259.4,539.8 L254.1,545.7 L255.4,549.5 L252.2,555.5 L240.9,556.7 L236.4,560.3 L227.7,557.0 L223.3,550.7 L220.0,549.8 L217.3,550.1 L215.6,554.4 L208.1,553.2 L205.4,546.4 L192.4,545.2 L193.3,539.2 L189.1,539.1 L183.4,535.4 L173.0,540.0 L159.3,517.6 L155.5,516.3 L161.9,499.4 L160.1,498.0 L161.1,490.2 L176.2,477.8 L175.3,473.9 L182.4,463.4 L179.3,456.6 L176.2,454.9 L168.9,455.7 L169.6,450.2 L162.1,446.8 L162.8,440.5 L157.4,435.2 L156.3,431.1 L158.2,424.1 L152.3,421.1 L151.6,417.7 L144.3,412.5 L140.8,405.5 L155.7,407.6 L161.5,405.2 L168.5,406.5 L177.9,404.9 L179.9,392.2 L185.7,386.6 L188.5,373.7 L183.1,364.5 L178.1,363.2 L178.1,354.1 L188.4,350.1 L196.1,353.0 L198.7,350.2 L200.7,352.6 L207.9,350.1 L211.4,343.0 L223.0,338.0 L224.9,334.3 L232.8,330.2Z"/>
  <path class="ccaa" data-ccaa="Galicia" d="M131.3,18.5 L132.6,19.7 L129.9,23.5 L134.4,21.8 L137.1,30.5 L138.1,25.8 L142.3,23.4 L154.0,29.7 L158.4,37.4 L161.8,39.0 L160.0,40.2 L161.1,41.8 L162.4,39.6 L176.6,41.5 L175.6,48.5 L171.9,53.3 L166.9,53.0 L166.2,56.7 L170.0,58.6 L171.9,65.2 L174.8,65.0 L174.7,70.9 L181.0,74.8 L182.0,81.4 L187.0,79.3 L188.2,76.1 L191.5,80.6 L188.0,85.6 L184.9,87.3 L183.3,86.1 L179.2,92.5 L181.6,95.2 L182.0,90.8 L185.3,95.3 L188.5,95.9 L191.9,106.7 L188.0,106.4 L190.2,111.2 L188.3,114.7 L175.8,123.5 L178.7,128.4 L175.7,129.4 L176.6,134.0 L173.6,141.2 L180.5,142.7 L183.7,140.1 L191.4,142.9 L192.0,148.9 L190.0,151.2 L197.6,155.4 L197.1,161.1 L192.8,166.8 L193.9,168.9 L187.5,168.6 L176.6,182.3 L181.7,186.7 L178.5,194.0 L173.8,194.0 L169.1,190.2 L166.6,191.2 L165.2,200.6 L156.9,204.1 L153.3,203.3 L149.1,207.4 L147.3,202.0 L136.0,205.4 L137.9,200.4 L133.2,200.5 L129.9,198.0 L119.8,200.5 L117.6,203.5 L116.5,196.2 L114.5,200.7 L110.3,201.3 L108.0,205.4 L97.4,206.4 L97.0,200.7 L95.0,201.2 L93.8,197.4 L103.2,185.9 L100.7,181.6 L96.2,183.0 L95.0,174.7 L85.7,181.4 L72.3,181.9 L70.0,184.5 L64.4,184.9 L62.5,189.1 L47.9,201.9 L45.9,178.7 L51.1,178.5 L49.4,174.5 L51.4,174.5 L54.7,168.3 L62.7,162.4 L66.2,162.2 L64.9,156.1 L62.7,161.9 L57.8,162.2 L53.5,166.1 L47.8,165.7 L49.0,160.0 L51.8,163.0 L50.2,157.3 L56.1,157.2 L63.3,148.8 L60.3,147.9 L54.7,152.7 L52.0,151.4 L50.2,153.0 L47.3,150.1 L47.1,146.2 L43.0,145.5 L47.9,141.9 L48.1,146.9 L51.6,146.6 L50.8,143.5 L52.6,141.9 L50.5,135.9 L54.9,133.2 L58.2,124.2 L56.7,127.7 L52.9,129.0 L49.8,124.2 L48.9,131.9 L46.8,131.5 L47.8,129.4 L46.0,128.3 L43.3,131.8 L44.6,133.7 L36.0,140.4 L36.2,135.8 L32.6,134.7 L36.1,129.0 L36.6,123.4 L47.7,110.7 L41.5,115.5 L37.7,115.3 L37.5,113.4 L34.5,114.7 L35.6,116.4 L32.7,119.3 L28.4,113.6 L31.4,110.1 L28.4,106.6 L30.2,103.4 L27.7,102.8 L26.9,99.7 L25.6,98.9 L25.7,102.4 L22.6,100.0 L19.3,104.9 L18.1,101.7 L20.9,94.1 L18.0,88.9 L20.6,89.7 L20.9,85.7 L23.5,85.9 L23.5,83.4 L25.6,85.7 L27.2,84.3 L27.4,79.7 L25.5,82.6 L23.9,79.8 L26.7,76.0 L33.5,77.0 L38.0,72.0 L39.2,73.6 L43.2,72.6 L42.3,69.1 L39.6,68.0 L42.0,66.2 L44.0,67.3 L45.1,63.5 L49.6,63.7 L50.1,61.2 L54.0,65.2 L59.1,66.5 L66.5,63.4 L71.5,64.0 L74.4,59.7 L78.2,57.7 L80.3,58.9 L80.9,56.9 L81.9,61.8 L84.0,61.4 L84.1,56.9 L87.5,55.4 L94.3,62.9 L93.3,57.2 L96.8,54.0 L90.8,54.2 L86.8,51.6 L94.9,50.1 L98.4,44.6 L94.9,48.5 L91.6,48.6 L91.6,46.9 L90.3,49.4 L85.1,50.3 L85.7,45.0 L88.2,42.9 L86.4,40.0 L90.8,40.7 L102.4,30.2 L105.2,31.9 L104.5,26.6 L108.9,26.5 L115.7,20.2 L118.2,19.8 L119.5,26.0 L117.6,24.7 L117.9,29.7 L115.7,29.7 L119.7,30.0 L118.7,26.3 L121.9,27.4 L122.1,24.4 L128.2,22.4 L131.3,18.5Z"/>
  <path class="ccaa" data-ccaa="La Rioja" d="M459.2,128.5 L464.9,130.7 L469.3,129.1 L471.7,131.3 L471.4,136.8 L477.2,130.4 L481.4,133.0 L479.6,140.4 L481.7,139.6 L483.7,143.6 L486.6,141.7 L487.2,144.6 L489.2,142.6 L491.9,143.6 L493.3,140.1 L493.0,143.0 L499.9,142.9 L504.8,146.6 L508.9,145.1 L516.8,150.8 L521.2,149.6 L522.7,156.5 L527.9,154.4 L531.0,155.9 L538.1,162.0 L538.0,165.5 L551.4,171.2 L550.0,173.0 L551.4,175.0 L548.6,176.7 L540.8,175.3 L535.4,183.7 L535.9,186.5 L539.7,188.6 L539.1,192.5 L531.1,196.9 L527.0,193.7 L521.0,193.0 L521.5,189.0 L517.7,183.0 L519.7,179.8 L510.1,181.0 L509.3,176.9 L506.7,175.6 L493.0,178.5 L493.0,182.8 L488.4,189.7 L476.7,188.4 L479.6,179.5 L477.6,177.5 L473.6,179.1 L473.2,184.9 L466.7,188.3 L463.8,181.1 L456.6,181.2 L449.9,170.5 L452.8,166.1 L451.3,156.1 L454.6,155.6 L451.6,152.8 L451.9,149.9 L455.0,154.3 L455.8,147.2 L452.4,143.1 L453.9,139.3 L449.6,138.0 L454.8,133.5 L453.1,128.6 L459.2,128.5Z"/>
  <path class="ccaa" data-ccaa="Madrid" d="M421.4,267.9 L424.8,274.0 L429.2,275.1 L428.3,278.8 L431.4,282.8 L426.8,291.4 L428.2,294.3 L423.2,302.4 L427.9,304.9 L428.6,308.0 L426.2,311.5 L430.7,313.4 L431.5,311.2 L434.8,316.3 L436.9,314.7 L435.3,317.4 L439.1,322.6 L438.2,325.5 L441.5,324.9 L445.0,327.7 L445.1,334.3 L448.1,334.6 L449.9,337.7 L445.4,352.1 L446.9,353.4 L451.9,349.4 L454.3,360.4 L452.2,361.8 L454.8,366.6 L450.7,369.2 L447.7,368.9 L446.5,366.4 L444.9,369.3 L439.7,370.5 L435.8,367.5 L432.7,368.0 L430.9,371.7 L423.5,370.4 L422.6,372.9 L414.3,375.9 L414.6,378.0 L406.9,380.3 L402.7,385.4 L397.7,381.4 L405.6,377.8 L406.2,379.4 L410.0,373.1 L414.5,371.1 L416.5,364.9 L412.3,361.7 L406.9,362.8 L402.7,358.7 L400.6,360.1 L398.0,357.5 L392.4,357.4 L392.3,355.4 L389.6,355.7 L383.9,350.5 L378.8,352.4 L375.6,347.6 L374.8,350.2 L371.6,349.8 L367.6,354.6 L364.6,353.2 L362.4,345.7 L358.4,353.2 L352.0,356.5 L348.7,355.9 L349.2,351.2 L351.9,348.0 L350.8,343.5 L353.8,346.0 L357.1,345.6 L359.5,337.6 L366.5,337.2 L366.0,325.9 L368.8,323.1 L368.6,317.2 L371.8,319.6 L377.7,317.6 L377.0,312.3 L383.6,302.3 L390.4,302.7 L395.5,286.9 L404.3,282.8 L416.0,268.9 L421.4,267.9Z"/>
  <circle class="ccaa ccaa-dot" data-ccaa="Melilla" cx="462.5" cy="791.9" r="7"/>
  <path class="ccaa" data-ccaa="Murcia" d="M588.5,488.4 L597.2,496.6 L598.9,504.0 L598.1,510.8 L592.4,516.0 L593.1,524.2 L599.8,526.5 L601.3,530.5 L596.5,542.8 L597.4,548.3 L606.0,561.9 L616.5,570.9 L616.4,573.8 L614.7,571.1 L613.3,571.9 L609.0,580.5 L612.8,585.3 L618.1,587.4 L616.8,574.5 L617.8,583.5 L620.9,587.6 L604.7,594.6 L601.8,594.1 L599.6,590.4 L597.8,592.9 L591.4,593.2 L591.3,596.3 L584.1,592.7 L576.2,593.8 L566.8,600.5 L565.0,606.1 L562.7,605.3 L555.2,610.4 L547.4,604.4 L542.2,603.6 L542.4,605.2 L539.9,603.3 L528.2,584.1 L530.8,566.7 L522.0,565.9 L520.4,563.9 L517.0,564.9 L505.1,552.7 L505.9,549.2 L510.7,545.0 L514.1,537.0 L521.1,533.9 L525.6,527.8 L530.2,530.0 L535.5,528.5 L546.9,521.1 L550.9,522.5 L552.1,527.3 L560.0,526.1 L565.5,521.5 L564.1,507.6 L569.5,494.6 L573.4,492.2 L574.9,494.6 L581.6,489.1 L588.5,488.4Z"/>
  <path class="ccaa" data-ccaa="Navarra" d="M553.4,64.6 L555.3,65.0 L556.4,70.2 L558.7,70.4 L561.5,66.0 L572.1,70.0 L570.0,82.0 L565.9,86.0 L568.1,89.9 L574.2,91.7 L575.7,84.0 L580.1,83.0 L577.4,87.5 L580.6,90.1 L584.1,89.4 L589.1,93.6 L591.0,92.1 L602.9,98.8 L616.1,97.4 L618.4,101.8 L611.7,103.8 L608.4,117.0 L606.0,117.2 L602.6,121.9 L597.1,123.0 L595.4,128.5 L588.4,128.0 L584.8,137.3 L580.1,137.4 L578.5,141.0 L579.9,143.7 L575.1,149.2 L573.8,153.6 L576.0,155.7 L571.1,161.8 L569.8,169.3 L571.1,177.4 L574.4,182.4 L577.3,182.5 L577.7,185.3 L569.7,197.4 L559.9,197.4 L553.2,192.6 L549.0,193.4 L545.3,189.7 L540.7,189.8 L535.9,186.5 L535.9,182.3 L540.8,175.3 L548.6,176.7 L551.4,175.0 L550.0,173.0 L551.5,171.3 L538.0,165.5 L538.1,162.0 L529.3,155.0 L522.7,156.5 L521.2,149.6 L516.8,150.8 L508.9,145.1 L504.9,146.6 L501.0,144.7 L499.4,141.1 L501.6,140.4 L501.2,132.6 L499.5,131.8 L497.3,135.6 L494.1,131.5 L499.9,126.5 L502.3,129.2 L508.8,127.3 L506.3,120.7 L510.7,118.4 L509.3,114.9 L512.7,109.6 L512.5,101.4 L514.3,99.1 L520.8,99.9 L522.4,97.0 L526.3,96.2 L527.4,88.1 L535.9,81.3 L535.0,72.8 L537.3,74.5 L538.3,72.2 L538.8,74.0 L543.4,70.7 L544.2,66.8 L553.4,64.6Z"/>
  <path class="ccaa" data-ccaa="País Vasco" d="M476.4,50.5 L480.3,55.3 L483.8,54.4 L485.7,56.7 L493.3,58.1 L504.3,65.7 L514.8,64.4 L519.9,66.8 L534.4,62.5 L543.6,56.3 L543.8,60.5 L547.4,62.7 L548.0,66.2 L544.2,66.8 L543.4,70.7 L538.8,74.0 L537.4,72.4 L537.3,74.5 L535.0,72.8 L535.9,81.3 L527.4,88.1 L526.3,96.2 L522.4,97.0 L520.8,99.9 L515.1,99.0 L512.8,100.9 L512.5,110.1 L509.3,114.9 L510.7,118.4 L506.3,120.7 L508.8,127.3 L502.3,129.2 L499.9,126.5 L494.0,130.9 L497.3,135.6 L499.5,131.8 L501.2,132.6 L501.6,140.4 L499.6,143.0 L493.0,143.0 L493.3,140.1 L491.9,143.5 L489.2,142.6 L487.4,144.6 L486.7,141.7 L483.8,143.6 L481.7,139.6 L479.6,140.4 L481.3,132.9 L475.6,130.3 L471.3,136.8 L471.7,131.3 L466.3,127.3 L465.8,123.6 L460.4,122.6 L455.5,116.7 L448.7,117.6 L450.4,114.5 L447.9,113.0 L451.0,104.9 L447.6,108.0 L445.7,106.8 L444.6,110.8 L439.5,106.6 L443.3,99.2 L452.6,104.0 L457.7,103.1 L460.3,100.1 L454.8,94.0 L446.6,92.2 L449.1,91.5 L447.9,87.3 L449.6,85.0 L446.3,82.8 L448.6,77.7 L443.3,78.0 L441.3,75.3 L429.8,81.6 L427.6,72.0 L435.2,67.7 L435.7,65.4 L439.4,66.5 L443.2,64.7 L444.3,67.1 L448.0,65.4 L448.3,60.4 L451.0,60.7 L453.0,58.1 L451.7,59.3 L455.7,59.8 L453.8,60.3 L457.6,63.1 L456.2,58.5 L462.7,54.8 L462.7,52.5 L472.5,53.0 L476.4,50.5Z M470.5,113.8 L468.2,119.2 L475.3,126.2 L482.9,125.6 L484.6,128.0 L492.8,128.1 L492.5,124.5 L488.6,126.0 L486.4,123.4 L489.9,117.0 L487.8,118.2 L486.9,116.3 L470.5,113.8Z"/>
  <path class="ccaa" data-ccaa="Canarias" d="M170.3,714.7 L172.5,719.2 L164.7,722.9 L156.1,731.3 L151.5,749.6 L143.0,759.5 L132.1,761.1 L117.0,732.8 L123.1,730.2 L128.7,732.0 L145.3,728.2 L158.3,715.6 L165.6,716.5 L170.3,714.7Z M329.0,701.2 L332.8,704.8 L333.6,717.5 L330.6,723.3 L331.8,729.6 L327.1,741.5 L306.0,748.3 L298.1,757.9 L285.8,756.4 L286.9,752.7 L295.2,752.2 L305.7,744.4 L307.1,735.4 L319.0,714.3 L319.9,705.2 L329.0,701.2Z M222.0,747.2 L221.9,756.7 L225.2,760.7 L226.2,766.9 L224.4,767.3 L224.3,772.8 L221.6,776.7 L211.4,782.3 L204.1,781.3 L196.2,774.6 L192.9,768.6 L193.7,760.4 L201.5,754.9 L201.7,748.3 L214.4,749.1 L218.6,751.5 L222.0,747.2Z M358.6,663.4 L362.0,667.0 L358.8,671.5 L360.0,674.7 L357.3,682.4 L346.5,688.2 L339.8,689.3 L336.2,694.7 L330.0,693.1 L329.6,690.9 L333.3,687.4 L334.2,679.1 L345.3,671.9 L353.0,672.3 L358.6,663.4Z M47.5,693.2 L51.2,695.2 L56.9,694.6 L60.6,702.3 L57.4,707.6 L58.1,716.2 L52.4,725.5 L40.8,701.2 L43.5,695.6 L47.5,693.2Z M93.0,744.2 L104.1,751.3 L104.4,753.9 L99.5,758.6 L92.4,759.5 L86.9,753.7 L88.9,745.3 L93.0,744.2Z M46.5,773.4 L49.4,777.1 L44.3,783.6 L42.8,790.0 L37.8,785.8 L30.1,784.0 L30.7,780.4 L38.7,780.3 L41.7,775.5 L46.5,773.4Z"/>
</svg>
